<svg xmlns="http://www.w3.org/2000/svg" viewBox="0 0 1000 1000" width="1000" height="1000"><g fill="#191d22">
<circle cx="47.8" cy="479.2" r="1"/>
<circle cx="369.2" cy="938.8" r="1"/>
<circle cx="915.7" cy="333.9" r="1"/>
<circle cx="885.9" cy="692.4" r="1"/>
<circle cx="930.0" cy="377.4" r="1"/>
<circle cx="864.4" cy="794.6" r="1"/>
<circle cx="957.4" cy="483.9" r="1"/>
<circle cx="455.8" cy="47.9" r="1"/>
<circle cx="401.4" cy="49.5" r="1"/>
<circle cx="934.0" cy="280.9" r="1"/>
<circle cx="583.9" cy="930.8" r="1"/>
<circle cx="182.4" cy="143.4" r="1"/>
<circle cx="703.5" cy="103.1" r="1"/>
<circle cx="74.0" cy="398.3" r="1"/>
<circle cx="952.7" cy="643.9" r="1"/>
<circle cx="571.9" cy="38.3" r="1"/>
<circle cx="419.7" cy="22.1" r="1"/>
<circle cx="376.6" cy="65.2" r="1"/>
<circle cx="108.2" cy="285.6" r="1"/>
<circle cx="28.2" cy="513.0" r="1"/>
<circle cx="92.1" cy="254.9" r="1"/>
<circle cx="198.4" cy="156.0" r="1"/>
<circle cx="177.2" cy="151.8" r="1"/>
<circle cx="226.8" cy="141.7" r="1"/>
<circle cx="55.7" cy="454.4" r="1"/>
<circle cx="145.6" cy="225.7" r="1"/>
<circle cx="91.8" cy="306.1" r="1"/>
<circle cx="194.9" cy="145.2" r="1"/>
<circle cx="75.1" cy="406.5" r="1"/>
<circle cx="36.8" cy="364.3" r="1"/>
<circle cx="222.4" cy="158.1" r="1"/>
<circle cx="53.4" cy="451.8" r="1"/>
<circle cx="45.0" cy="395.4" r="1"/>
<circle cx="153.9" cy="220.2" r="1"/>
<circle cx="101.6" cy="277.8" r="1"/>
<circle cx="192.1" cy="120.7" r="1"/>
<circle cx="84.7" cy="243.0" r="1"/>
<circle cx="36.3" cy="517.3" r="1"/>
<circle cx="136.4" cy="229.1" r="1"/>
<circle cx="47.8" cy="532.1" r="1"/>
<circle cx="66.8" cy="337.5" r="1"/>
<circle cx="208.9" cy="119.5" r="1"/>
<circle cx="49.0" cy="396.9" r="1"/>
<circle cx="147.4" cy="234.9" r="1"/>
<circle cx="174.9" cy="216.6" r="1"/>
<circle cx="207.6" cy="127.6" r="1"/>
<circle cx="58.7" cy="338.6" r="1"/>
<circle cx="110.6" cy="294.2" r="1"/>
<circle cx="78.8" cy="348.8" r="1"/>
<circle cx="80.5" cy="367.0" r="1"/>
<circle cx="13.5" cy="430.4" r="1"/>
<circle cx="112.7" cy="260.8" r="1"/>
<circle cx="133.3" cy="189.6" r="1"/>
<circle cx="96.7" cy="228.8" r="1"/>
<circle cx="204.4" cy="165.6" r="1"/>
<circle cx="111.7" cy="259.4" r="1"/>
<circle cx="26.2" cy="512.6" r="1"/>
<circle cx="140.6" cy="232.6" r="1"/>
<circle cx="66.3" cy="541.5" r="1"/>
<circle cx="55.2" cy="359.2" r="1"/>
<circle cx="67.4" cy="483.7" r="1"/>
<circle cx="72.5" cy="401.4" r="1"/>
<circle cx="65.4" cy="451.6" r="1"/>
<circle cx="101.9" cy="326.7" r="1"/>
<circle cx="27.4" cy="480.7" r="1"/>
<circle cx="11.3" cy="451.0" r="1"/>
<circle cx="57.4" cy="305.2" r="1"/>
<circle cx="42.9" cy="391.1" r="1"/>
<circle cx="117.9" cy="235.1" r="1"/>
<circle cx="64.2" cy="431.3" r="1"/>
<circle cx="151.1" cy="153.9" r="1"/>
<circle cx="204.2" cy="169.8" r="1"/>
<circle cx="217.9" cy="140.5" r="1"/>
<circle cx="153.9" cy="182.2" r="1"/>
<circle cx="57.9" cy="454.5" r="1"/>
<circle cx="212.3" cy="149.2" r="1"/>
<circle cx="201.8" cy="162.5" r="1"/>
<circle cx="207.7" cy="820.8" r="1"/>
<circle cx="928.3" cy="260.7" r="1"/>
<circle cx="674.9" cy="98.0" r="1"/>
<circle cx="63.7" cy="344.8" r="1"/>
<circle cx="547.1" cy="988.6" r="1"/>
<circle cx="928.6" cy="549.0" r="1"/>
<circle cx="268.2" cy="101.8" r="1"/>
<circle cx="25.1" cy="479.7" r="1"/>
<circle cx="907.2" cy="684.2" r="1"/>
<circle cx="897.0" cy="291.4" r="1"/>
<circle cx="437.3" cy="34.5" r="1"/>
<circle cx="653.4" cy="56.5" r="1"/>
<circle cx="615.2" cy="923.2" r="1"/>
<circle cx="911.5" cy="632.3" r="1"/>
<circle cx="153.1" cy="196.1" r="1"/>
<circle cx="40.9" cy="537.9" r="1"/>
<circle cx="464.2" cy="952.6" r="1"/>
<circle cx="386.0" cy="952.3" r="1"/>
<circle cx="322.7" cy="908.5" r="1"/>
<circle cx="638.8" cy="930.4" r="1"/>
<circle cx="510.6" cy="961.0" r="1"/>
<circle cx="759.8" cy="900.1" r="1"/>
<circle cx="424.2" cy="944.7" r="1"/>
<circle cx="848.1" cy="800.8" r="1"/>
<circle cx="539.0" cy="948.6" r="1"/>
<circle cx="617.1" cy="958.2" r="1"/>
<circle cx="581.5" cy="978.8" r="1"/>
<circle cx="368.5" cy="918.4" r="1"/>
<circle cx="240.1" cy="912.4" r="1"/>
<circle cx="426.7" cy="939.6" r="1"/>
<circle cx="825.0" cy="789.2" r="1"/>
<circle cx="419.3" cy="936.2" r="1"/>
<circle cx="847.3" cy="771.9" r="1"/>
<circle cx="488.3" cy="944.7" r="1"/>
<circle cx="685.0" cy="907.5" r="1"/>
<circle cx="856.9" cy="775.3" r="1"/>
<circle cx="851.6" cy="813.7" r="1"/>
<circle cx="874.5" cy="747.0" r="1"/>
<circle cx="550.0" cy="929.9" r="1"/>
<circle cx="413.5" cy="956.6" r="1"/>
<circle cx="591.8" cy="971.7" r="1"/>
<circle cx="348.9" cy="926.5" r="1"/>
<circle cx="527.4" cy="987.3" r="1"/>
<circle cx="613.0" cy="974.2" r="1"/>
<circle cx="454.5" cy="951.0" r="1"/>
<circle cx="434.1" cy="956.0" r="1"/>
<circle cx="722.6" cy="928.1" r="1"/>
<circle cx="707.4" cy="877.4" r="1"/>
<circle cx="499.8" cy="935.8" r="1"/>
<circle cx="552.2" cy="964.8" r="1"/>
<circle cx="303.4" cy="933.7" r="1"/>
<circle cx="432.5" cy="950.6" r="1"/>
<circle cx="508.2" cy="956.5" r="1"/>
<circle cx="371.8" cy="934.0" r="1"/>
<circle cx="689.5" cy="910.2" r="1"/>
<circle cx="890.1" cy="730.8" r="1"/>
<circle cx="377.7" cy="920.1" r="1"/>
<circle cx="443.9" cy="967.9" r="1"/>
<circle cx="317.6" cy="940.4" r="1"/>
<circle cx="743.7" cy="870.4" r="1"/>
<circle cx="837.7" cy="787.2" r="1"/>
<circle cx="740.8" cy="864.5" r="1"/>
<circle cx="634.3" cy="917.3" r="1"/>
<circle cx="288.5" cy="875.5" r="1"/>
<circle cx="448.0" cy="937.2" r="1"/>
<circle cx="703.6" cy="934.2" r="1"/>
<circle cx="444.4" cy="938.1" r="1"/>
<circle cx="298.3" cy="905.6" r="1"/>
<circle cx="332.4" cy="951.0" r="1"/>
<circle cx="560.4" cy="937.2" r="1"/>
<circle cx="421.4" cy="958.8" r="1"/>
<circle cx="782.3" cy="838.9" r="1"/>
<circle cx="614.6" cy="959.6" r="1"/>
<circle cx="557.4" cy="984.5" r="1"/>
<circle cx="787.5" cy="856.3" r="1"/>
<circle cx="424.6" cy="952.8" r="1"/>
<circle cx="310.3" cy="896.4" r="1"/>
<circle cx="760.8" cy="899.9" r="1"/>
<circle cx="288.6" cy="896.8" r="1"/>
<circle cx="774.2" cy="837.0" r="1"/>
<circle cx="525.9" cy="989.3" r="1"/>
<circle cx="939.2" cy="472.4" r="1"/>
<circle cx="247.8" cy="128.9" r="1"/>
<circle cx="314.8" cy="106.3" r="1"/>
<circle cx="824.1" cy="209.5" r="1"/>
<circle cx="792.0" cy="866.8" r="1"/>
<circle cx="634.5" cy="78.8" r="1"/>
<circle cx="635.3" cy="87.9" r="1"/>
<circle cx="67.8" cy="459.1" r="1"/>
<circle cx="662.2" cy="947.0" r="1"/>
<circle cx="694.1" cy="87.5" r="1"/>
<circle cx="48.5" cy="627.8" r="1"/>
<circle cx="506.0" cy="19.1" r="1"/>
<circle cx="742.8" cy="895.1" r="1"/>
<circle cx="418.5" cy="951.7" r="1"/>
<circle cx="145.2" cy="221.6" r="1"/>
<circle cx="382.1" cy="938.4" r="1"/>
<circle cx="643.8" cy="44.7" r="1"/>
<circle cx="71.9" cy="375.0" r="1"/>
<circle cx="122.9" cy="219.4" r="1"/>
<circle cx="688.4" cy="904.9" r="1"/>
<circle cx="270.9" cy="925.6" r="1"/>
<circle cx="56.7" cy="405.6" r="1"/>
<circle cx="542.1" cy="977.1" r="1"/>
<circle cx="370.1" cy="70.1" r="1"/>
<circle cx="511.3" cy="951.1" r="1"/>
<circle cx="858.4" cy="237.5" r="1"/>
<circle cx="71.0" cy="657.2" r="1"/>
<circle cx="543.5" cy="54.7" r="1"/>
<circle cx="855.5" cy="186.2" r="1"/>
<circle cx="156.8" cy="227.2" r="1"/>
<circle cx="135.2" cy="240.1" r="1"/>
<circle cx="942.3" cy="542.7" r="1"/>
<circle cx="92.0" cy="288.9" r="1"/>
<circle cx="821.4" cy="192.0" r="1"/>
<circle cx="411.7" cy="24.2" r="1"/>
<circle cx="78.5" cy="401.9" r="1"/>
<circle cx="453.0" cy="45.6" r="1"/>
<circle cx="196.0" cy="818.4" r="1"/>
<circle cx="536.4" cy="941.0" r="1"/>
<circle cx="838.4" cy="213.2" r="1"/>
<circle cx="613.0" cy="30.7" r="1"/>
<circle cx="379.3" cy="64.1" r="1"/>
<circle cx="812.9" cy="799.4" r="1"/>
<circle cx="313.5" cy="112.0" r="1"/>
<circle cx="39.4" cy="557.6" r="1"/>
<circle cx="206.3" cy="851.9" r="1"/>
<circle cx="964.6" cy="493.3" r="1"/>
<circle cx="91.4" cy="234.9" r="1"/>
<circle cx="456.9" cy="952.6" r="1"/>
<circle cx="326.8" cy="943.2" r="1"/>
<circle cx="70.1" cy="632.0" r="1"/>
<circle cx="885.8" cy="304.9" r="1"/>
<circle cx="63.9" cy="610.5" r="1"/>
<circle cx="194.0" cy="872.7" r="1"/>
<circle cx="755.5" cy="138.4" r="1"/>
<circle cx="143.2" cy="212.3" r="1"/>
<circle cx="941.5" cy="529.4" r="1"/>
<circle cx="604.5" cy="44.4" r="1"/>
<circle cx="487.5" cy="48.5" r="1"/>
<circle cx="713.4" cy="93.2" r="1"/>
<circle cx="212.0" cy="101.5" r="1"/>
<circle cx="881.0" cy="752.3" r="1"/>
<circle cx="921.9" cy="255.1" r="1"/>
<circle cx="466.6" cy="973.3" r="1"/>
<circle cx="755.0" cy="867.8" r="1"/>
<circle cx="183.6" cy="849.5" r="1"/>
<circle cx="342.1" cy="94.6" r="1"/>
<circle cx="523.2" cy="55.0" r="1"/>
<circle cx="527.6" cy="61.2" r="1"/>
<circle cx="64.3" cy="547.5" r="1"/>
<circle cx="54.7" cy="412.2" r="1"/>
<circle cx="187.8" cy="807.5" r="1"/>
<circle cx="488.2" cy="65.1" r="1"/>
<circle cx="677.6" cy="917.5" r="1"/>
<circle cx="71.7" cy="336.3" r="1"/>
<circle cx="933.5" cy="356.1" r="1"/>
<circle cx="121.9" cy="781.7" r="1"/>
<circle cx="525.0" cy="27.7" r="1"/>
<circle cx="896.2" cy="289.6" r="1"/>
<circle cx="792.5" cy="150.9" r="1"/>
<circle cx="215.0" cy="824.5" r="1"/>
<circle cx="128.6" cy="223.7" r="1"/>
<circle cx="784.2" cy="886.0" r="1"/>
<circle cx="461.8" cy="959.1" r="1"/>
<circle cx="891.0" cy="314.5" r="1"/>
<circle cx="57.5" cy="596.3" r="1"/>
<circle cx="640.2" cy="968.4" r="1"/>
<circle cx="142.4" cy="246.3" r="1"/>
<circle cx="457.5" cy="56.0" r="1"/>
<circle cx="666.0" cy="947.8" r="1"/>
<circle cx="989.8" cy="534.2" r="1"/>
<circle cx="105.9" cy="228.2" r="1"/>
<circle cx="163.6" cy="221.0" r="1"/>
<circle cx="63.1" cy="533.0" r="1"/>
<circle cx="54.9" cy="626.0" r="1"/>
<circle cx="819.6" cy="199.9" r="1"/>
<circle cx="820.0" cy="863.0" r="1"/>
<circle cx="122.4" cy="792.5" r="1"/>
<circle cx="979.2" cy="572.2" r="1"/>
<circle cx="573.5" cy="67.7" r="1"/>
<circle cx="106.4" cy="723.2" r="1"/>
<circle cx="922.9" cy="611.7" r="1"/>
<circle cx="864.8" cy="173.9" r="1"/>
<circle cx="927.5" cy="610.0" r="1"/>
<circle cx="823.2" cy="209.6" r="1"/>
<circle cx="951.8" cy="413.2" r="1"/>
<circle cx="894.7" cy="710.6" r="1"/>
<circle cx="725.4" cy="898.0" r="1"/>
<circle cx="116.1" cy="757.4" r="1"/>
<circle cx="20.2" cy="401.9" r="1"/>
<circle cx="11.8" cy="558.3" r="1"/>
<circle cx="931.2" cy="678.9" r="1"/>
<circle cx="938.9" cy="379.3" r="1"/>
<circle cx="642.3" cy="941.7" r="1"/>
<circle cx="662.3" cy="89.3" r="1"/>
<circle cx="534.7" cy="948.5" r="1"/>
<circle cx="269.9" cy="127.1" r="1"/>
<circle cx="916.7" cy="608.1" r="1"/>
<circle cx="829.9" cy="213.6" r="1"/>
<circle cx="964.4" cy="483.7" r="1"/>
<circle cx="654.8" cy="65.0" r="1"/>
<circle cx="945.0" cy="309.4" r="1"/>
<circle cx="19.2" cy="430.3" r="1"/>
<circle cx="336.0" cy="80.4" r="1"/>
<circle cx="436.8" cy="48.0" r="1"/>
<circle cx="180.2" cy="799.6" r="1"/>
<circle cx="42.0" cy="518.4" r="1"/>
<circle cx="543.3" cy="59.2" r="1"/>
<circle cx="173.4" cy="841.3" r="1"/>
<circle cx="615.5" cy="970.5" r="1"/>
<circle cx="221.9" cy="127.6" r="1"/>
<circle cx="133.7" cy="819.7" r="1"/>
<circle cx="463.1" cy="944.0" r="1"/>
<circle cx="959.1" cy="495.7" r="1"/>
<circle cx="58.7" cy="589.1" r="1"/>
<circle cx="277.4" cy="97.5" r="1"/>
<circle cx="464.8" cy="930.2" r="1"/>
<circle cx="351.7" cy="943.9" r="1"/>
<circle cx="838.7" cy="206.7" r="1"/>
<circle cx="987.5" cy="503.4" r="1"/>
<circle cx="966.6" cy="618.5" r="1"/>
<circle cx="52.9" cy="319.4" r="1"/>
<circle cx="991.9" cy="492.9" r="1"/>
<circle cx="940.5" cy="565.5" r="1"/>
<circle cx="699.3" cy="95.8" r="1"/>
<circle cx="671.5" cy="934.8" r="1"/>
<circle cx="936.0" cy="641.1" r="1"/>
<circle cx="9.6" cy="493.2" r="1"/>
<circle cx="885.2" cy="694.7" r="1"/>
<circle cx="657.3" cy="47.2" r="1"/>
<circle cx="80.8" cy="358.0" r="1"/>
<circle cx="717.6" cy="111.1" r="1"/>
<circle cx="62.3" cy="548.9" r="1"/>
<circle cx="383.4" cy="83.2" r="1"/>
<circle cx="930.7" cy="481.6" r="1"/>
<circle cx="526.8" cy="934.4" r="1"/>
<circle cx="882.0" cy="266.2" r="1"/>
<circle cx="705.1" cy="118.0" r="1"/>
<circle cx="34.0" cy="352.5" r="1"/>
<circle cx="891.7" cy="735.3" r="1"/>
<circle cx="325.4" cy="89.5" r="1"/>
<circle cx="749.2" cy="92.2" r="1"/>
<circle cx="941.8" cy="503.3" r="1"/>
<circle cx="928.6" cy="609.2" r="1"/>
<circle cx="763.2" cy="841.9" r="1"/>
<circle cx="87.0" cy="701.1" r="1"/>
<circle cx="389.1" cy="23.6" r="1"/>
<circle cx="734.3" cy="122.5" r="1"/>
<circle cx="494.2" cy="965.1" r="1"/>
<circle cx="132.6" cy="174.5" r="1"/>
<circle cx="944.2" cy="693.9" r="1"/>
<circle cx="455.4" cy="981.6" r="1"/>
<circle cx="761.1" cy="147.1" r="1"/>
<circle cx="842.9" cy="779.7" r="1"/>
<circle cx="302.9" cy="908.2" r="1"/>
<circle cx="595.9" cy="976.6" r="1"/>
<circle cx="731.9" cy="89.8" r="1"/>
<circle cx="854.3" cy="224.5" r="1"/>
<circle cx="161.6" cy="832.5" r="1"/>
<circle cx="38.3" cy="659.4" r="1"/>
<circle cx="132.6" cy="803.5" r="1"/>
<circle cx="38.8" cy="419.8" r="1"/>
<circle cx="844.3" cy="805.1" r="1"/>
<circle cx="962.6" cy="483.7" r="1"/>
<circle cx="73.4" cy="592.0" r="1"/>
<circle cx="20.3" cy="428.0" r="1"/>
<circle cx="580.5" cy="26.4" r="1"/>
<circle cx="769.8" cy="120.8" r="1"/>
<circle cx="70.1" cy="520.5" r="1"/>
<circle cx="66.8" cy="630.3" r="1"/>
<circle cx="114.2" cy="294.5" r="1"/>
<circle cx="239.3" cy="894.1" r="1"/>
<circle cx="690.4" cy="99.3" r="1"/>
<circle cx="70.8" cy="612.2" r="1"/>
<circle cx="801.4" cy="871.3" r="1"/>
<circle cx="388.9" cy="28.2" r="1"/>
<circle cx="747.1" cy="886.7" r="1"/>
<circle cx="46.8" cy="378.8" r="1"/>
<circle cx="962.2" cy="374.5" r="1"/>
<circle cx="839.5" cy="148.7" r="1"/>
<circle cx="71.1" cy="584.9" r="1"/>
<circle cx="322.2" cy="915.9" r="1"/>
<circle cx="54.8" cy="667.3" r="1"/>
<circle cx="56.6" cy="395.3" r="1"/>
<circle cx="537.3" cy="64.8" r="1"/>
<circle cx="287.0" cy="924.7" r="1"/>
<circle cx="549.9" cy="70.3" r="1"/>
<circle cx="787.0" cy="178.9" r="1"/>
<circle cx="559.2" cy="28.9" r="1"/>
<circle cx="59.1" cy="622.4" r="1"/>
<circle cx="230.0" cy="117.3" r="1"/>
<circle cx="668.0" cy="960.4" r="1"/>
<circle cx="736.1" cy="863.4" r="1"/>
<circle cx="316.2" cy="90.1" r="1"/>
<circle cx="65.0" cy="493.7" r="1"/>
<circle cx="37.9" cy="623.3" r="1"/>
<circle cx="67.5" cy="678.5" r="1"/>
<circle cx="903.7" cy="266.0" r="1"/>
<circle cx="44.8" cy="474.8" r="1"/>
<circle cx="46.0" cy="660.6" r="1"/>
<circle cx="366.9" cy="84.1" r="1"/>
<circle cx="508.1" cy="945.9" r="1"/>
<circle cx="322.8" cy="71.4" r="1"/>
<circle cx="549.6" cy="55.5" r="1"/>
<circle cx="58.8" cy="295.1" r="1"/>
<circle cx="636.5" cy="933.0" r="1"/>
<circle cx="946.1" cy="510.4" r="1"/>
<circle cx="183.1" cy="827.8" r="1"/>
<circle cx="68.0" cy="579.3" r="1"/>
<circle cx="80.8" cy="342.8" r="1"/>
<circle cx="36.0" cy="646.6" r="1"/>
<circle cx="89.2" cy="308.6" r="1"/>
<circle cx="938.9" cy="278.4" r="1"/>
<circle cx="380.3" cy="51.3" r="1"/>
<circle cx="954.5" cy="324.0" r="1"/>
<circle cx="697.6" cy="915.9" r="1"/>
<circle cx="846.6" cy="839.7" r="1"/>
<circle cx="40.8" cy="638.8" r="1"/>
<circle cx="524.5" cy="947.1" r="1"/>
<circle cx="653.6" cy="916.7" r="1"/>
<circle cx="150.7" cy="764.7" r="1"/>
<circle cx="25.5" cy="598.3" r="1"/>
<circle cx="772.2" cy="908.7" r="1"/>
<circle cx="77.2" cy="698.6" r="1"/>
<circle cx="276.1" cy="933.4" r="1"/>
<circle cx="211.8" cy="890.0" r="1"/>
<circle cx="892.8" cy="301.7" r="1"/>
<circle cx="55.8" cy="559.8" r="1"/>
<circle cx="841.8" cy="816.1" r="1"/>
<circle cx="867.5" cy="767.0" r="1"/>
<circle cx="356.9" cy="942.3" r="1"/>
<circle cx="82.5" cy="712.7" r="1"/>
<circle cx="10.8" cy="536.0" r="1"/>
<circle cx="398.6" cy="71.6" r="1"/>
<circle cx="831.7" cy="221.0" r="1"/>
<circle cx="770.5" cy="126.2" r="1"/>
<circle cx="91.8" cy="307.0" r="1"/>
<circle cx="971.6" cy="474.2" r="1"/>
<circle cx="356.7" cy="921.0" r="1"/>
<circle cx="41.3" cy="540.7" r="1"/>
<circle cx="935.9" cy="439.6" r="1"/>
<circle cx="913.0" cy="268.5" r="1"/>
<circle cx="512.3" cy="979.2" r="1"/>
<circle cx="463.0" cy="29.8" r="1"/>
<circle cx="840.7" cy="217.8" r="1"/>
<circle cx="713.0" cy="103.7" r="1"/>
<circle cx="144.8" cy="167.3" r="1"/>
<circle cx="60.3" cy="359.0" r="1"/>
<circle cx="887.8" cy="290.9" r="1"/>
<circle cx="89.7" cy="762.2" r="1"/>
<circle cx="73.6" cy="725.1" r="1"/>
<circle cx="55.7" cy="544.8" r="1"/>
<circle cx="789.2" cy="881.1" r="1"/>
<circle cx="46.0" cy="463.4" r="1"/>
<circle cx="147.4" cy="190.3" r="1"/>
<circle cx="819.5" cy="821.9" r="1"/>
<circle cx="221.3" cy="864.0" r="1"/>
<circle cx="866.3" cy="254.4" r="1"/>
<circle cx="184.4" cy="160.1" r="1"/>
<circle cx="940.6" cy="566.4" r="1"/>
<circle cx="46.2" cy="556.2" r="1"/>
<circle cx="123.7" cy="274.3" r="1"/>
<circle cx="157.1" cy="791.0" r="1"/>
<circle cx="398.6" cy="973.2" r="1"/>
<circle cx="695.5" cy="914.0" r="1"/>
<circle cx="186.4" cy="173.5" r="1"/>
<circle cx="892.0" cy="305.5" r="1"/>
<circle cx="222.7" cy="867.4" r="1"/>
<circle cx="871.0" cy="251.0" r="1"/>
<circle cx="35.1" cy="486.3" r="1"/>
<circle cx="808.7" cy="831.7" r="1"/>
<circle cx="913.8" cy="699.5" r="1"/>
<circle cx="752.7" cy="884.7" r="1"/>
<circle cx="964.3" cy="584.6" r="1"/>
<circle cx="594.0" cy="64.1" r="1"/>
<circle cx="175.1" cy="193.4" r="1"/>
<circle cx="368.7" cy="930.7" r="1"/>
<circle cx="154.6" cy="845.0" r="1"/>
<circle cx="941.5" cy="431.2" r="1"/>
<circle cx="49.6" cy="679.3" r="1"/>
<circle cx="861.3" cy="255.1" r="1"/>
<circle cx="572.4" cy="67.7" r="1"/>
<circle cx="743.8" cy="912.3" r="1"/>
<circle cx="294.8" cy="889.4" r="1"/>
<circle cx="955.7" cy="486.5" r="1"/>
<circle cx="669.8" cy="67.9" r="1"/>
<circle cx="884.4" cy="801.6" r="1"/>
<circle cx="858.0" cy="806.9" r="1"/>
<circle cx="393.0" cy="24.3" r="1"/>
<circle cx="731.2" cy="912.6" r="1"/>
<circle cx="125.4" cy="190.1" r="1"/>
<circle cx="53.9" cy="438.5" r="1"/>
<circle cx="155.1" cy="806.0" r="1"/>
<circle cx="210.3" cy="132.3" r="1"/>
<circle cx="23.0" cy="574.9" r="1"/>
<circle cx="715.6" cy="82.0" r="1"/>
<circle cx="76.8" cy="679.0" r="1"/>
<circle cx="374.4" cy="927.3" r="1"/>
<circle cx="913.3" cy="728.2" r="1"/>
<circle cx="440.8" cy="935.7" r="1"/>
<circle cx="38.4" cy="418.2" r="1"/>
<circle cx="925.5" cy="271.3" r="1"/>
<circle cx="386.8" cy="935.1" r="1"/>
<circle cx="501.7" cy="37.5" r="1"/>
<circle cx="424.9" cy="926.9" r="1"/>
<circle cx="63.6" cy="592.1" r="1"/>
<circle cx="303.5" cy="901.0" r="1"/>
<circle cx="957.6" cy="617.8" r="1"/>
<circle cx="212.9" cy="822.8" r="1"/>
<circle cx="939.2" cy="524.3" r="1"/>
<circle cx="921.8" cy="709.0" r="1"/>
<circle cx="825.7" cy="198.3" r="1"/>
<circle cx="890.3" cy="312.4" r="1"/>
<circle cx="107.6" cy="242.3" r="1"/>
<circle cx="963.7" cy="538.0" r="1"/>
<circle cx="871.6" cy="211.0" r="1"/>
<circle cx="961.0" cy="607.0" r="1"/>
<circle cx="558.2" cy="940.3" r="1"/>
<circle cx="66.4" cy="376.4" r="1"/>
<circle cx="921.3" cy="331.0" r="1"/>
<circle cx="67.7" cy="485.1" r="1"/>
<circle cx="843.1" cy="202.9" r="1"/>
<circle cx="266.6" cy="927.6" r="1"/>
<circle cx="776.3" cy="157.8" r="1"/>
<circle cx="176.1" cy="173.2" r="1"/>
<circle cx="224.9" cy="167.1" r="1"/>
<circle cx="458.4" cy="978.5" r="1"/>
<circle cx="959.4" cy="561.9" r="1"/>
<circle cx="841.5" cy="195.5" r="1"/>
<circle cx="146.6" cy="771.6" r="1"/>
<circle cx="937.8" cy="557.5" r="1"/>
<circle cx="139.1" cy="264.2" r="1"/>
<circle cx="712.2" cy="95.5" r="1"/>
<circle cx="243.9" cy="139.5" r="1"/>
<circle cx="601.2" cy="55.0" r="1"/>
<circle cx="814.6" cy="177.4" r="1"/>
<circle cx="160.8" cy="820.1" r="1"/>
<circle cx="292.9" cy="73.9" r="1"/>
<circle cx="923.7" cy="313.5" r="1"/>
<circle cx="781.1" cy="835.1" r="1"/>
<circle cx="930.1" cy="526.2" r="1"/>
<circle cx="895.7" cy="274.3" r="1"/>
<circle cx="128.6" cy="234.8" r="1"/>
<circle cx="840.7" cy="830.6" r="1"/>
<circle cx="876.1" cy="744.7" r="1"/>
<circle cx="113.5" cy="730.2" r="1"/>
<circle cx="131.0" cy="771.6" r="1"/>
<circle cx="468.2" cy="35.7" r="1"/>
<circle cx="30.8" cy="355.3" r="1"/>
<circle cx="850.8" cy="780.4" r="1"/>
<circle cx="918.9" cy="380.6" r="1"/>
<circle cx="174.8" cy="816.3" r="1"/>
<circle cx="154.9" cy="197.3" r="1"/>
<circle cx="37.1" cy="343.8" r="1"/>
<circle cx="230.1" cy="838.2" r="1"/>
<circle cx="28.5" cy="629.3" r="1"/>
<circle cx="150.7" cy="793.5" r="1"/>
<circle cx="223.2" cy="138.0" r="1"/>
<circle cx="472.0" cy="10.3" r="1"/>
<circle cx="755.7" cy="883.5" r="1"/>
<circle cx="68.2" cy="724.5" r="1"/>
<circle cx="777.4" cy="893.6" r="1"/>
<circle cx="967.3" cy="416.3" r="1"/>
<circle cx="158.0" cy="826.1" r="1"/>
<circle cx="975.6" cy="394.3" r="1"/>
<circle cx="45.6" cy="313.8" r="1"/>
<circle cx="472.6" cy="978.9" r="1"/>
<circle cx="19.6" cy="556.7" r="1"/>
<circle cx="844.8" cy="189.4" r="1"/>
<circle cx="231.5" cy="139.1" r="1"/>
<circle cx="788.9" cy="104.0" r="1"/>
<circle cx="333.9" cy="954.1" r="1"/>
<circle cx="535.1" cy="945.4" r="1"/>
<circle cx="832.0" cy="210.3" r="1"/>
<circle cx="603.3" cy="926.7" r="1"/>
<circle cx="695.5" cy="897.8" r="1"/>
<circle cx="48.0" cy="619.4" r="1"/>
<circle cx="197.4" cy="879.2" r="1"/>
<circle cx="478.9" cy="959.4" r="1"/>
<circle cx="132.9" cy="811.6" r="1"/>
<circle cx="580.4" cy="941.2" r="1"/>
<circle cx="246.8" cy="892.4" r="1"/>
<circle cx="659.8" cy="89.0" r="1"/>
<circle cx="174.4" cy="800.4" r="1"/>
<circle cx="714.1" cy="90.1" r="1"/>
<circle cx="185.1" cy="871.6" r="1"/>
<circle cx="193.4" cy="176.4" r="1"/>
<circle cx="460.6" cy="974.2" r="1"/>
<circle cx="147.5" cy="763.3" r="1"/>
<circle cx="724.7" cy="88.8" r="1"/>
<circle cx="836.9" cy="214.4" r="1"/>
<circle cx="793.8" cy="121.7" r="1"/>
<circle cx="740.2" cy="883.8" r="1"/>
<circle cx="69.2" cy="319.0" r="1"/>
<circle cx="676.2" cy="902.3" r="1"/>
<circle cx="102.9" cy="229.4" r="1"/>
<circle cx="300.3" cy="895.7" r="1"/>
<circle cx="92.9" cy="683.2" r="1"/>
<circle cx="944.8" cy="544.6" r="1"/>
<circle cx="317.9" cy="47.5" r="1"/>
<circle cx="759.4" cy="913.9" r="1"/>
<circle cx="836.0" cy="838.1" r="1"/>
<circle cx="239.8" cy="96.7" r="1"/>
<circle cx="574.4" cy="14.7" r="1"/>
<circle cx="57.3" cy="393.1" r="1"/>
<circle cx="248.9" cy="100.4" r="1"/>
<circle cx="97.6" cy="654.4" r="1"/>
<circle cx="72.7" cy="372.3" r="1"/>
<circle cx="68.5" cy="320.9" r="1"/>
<circle cx="166.1" cy="224.1" r="1"/>
<circle cx="845.1" cy="805.1" r="1"/>
<circle cx="267.2" cy="868.4" r="1"/>
<circle cx="707.7" cy="82.6" r="1"/>
<circle cx="818.9" cy="181.1" r="1"/>
<circle cx="59.9" cy="383.7" r="1"/>
<circle cx="338.8" cy="941.6" r="1"/>
<circle cx="176.5" cy="794.0" r="1"/>
<circle cx="953.2" cy="363.7" r="1"/>
<circle cx="177.3" cy="206.8" r="1"/>
<circle cx="391.8" cy="59.1" r="1"/>
<circle cx="980.6" cy="404.6" r="1"/>
<circle cx="844.1" cy="833.8" r="1"/>
<circle cx="731.4" cy="931.8" r="1"/>
<circle cx="47.1" cy="422.7" r="1"/>
<circle cx="888.4" cy="729.1" r="1"/>
<circle cx="263.6" cy="87.3" r="1"/>
<circle cx="879.1" cy="774.3" r="1"/>
<circle cx="880.0" cy="776.8" r="1"/>
<circle cx="667.8" cy="46.5" r="1"/>
<circle cx="302.7" cy="922.7" r="1"/>
<circle cx="773.3" cy="871.3" r="1"/>
<circle cx="41.7" cy="675.8" r="1"/>
<circle cx="627.4" cy="26.3" r="1"/>
<circle cx="76.2" cy="741.7" r="1"/>
<circle cx="875.8" cy="226.6" r="1"/>
<circle cx="675.5" cy="923.7" r="1"/>
<circle cx="924.4" cy="331.0" r="1"/>
<circle cx="911.3" cy="237.2" r="1"/>
<circle cx="52.7" cy="617.8" r="1"/>
<circle cx="520.3" cy="973.9" r="1"/>
<circle cx="930.6" cy="720.8" r="1"/>
<circle cx="425.2" cy="962.7" r="1"/>
<circle cx="893.0" cy="697.8" r="1"/>
<circle cx="48.9" cy="642.2" r="1"/>
<circle cx="123.0" cy="247.2" r="1"/>
<circle cx="192.6" cy="191.9" r="1"/>
<circle cx="31.2" cy="578.8" r="1"/>
<circle cx="503.1" cy="950.0" r="1"/>
<circle cx="310.4" cy="64.8" r="1"/>
<circle cx="941.8" cy="449.3" r="1"/>
<circle cx="213.5" cy="150.1" r="1"/>
<circle cx="73.7" cy="329.3" r="1"/>
<circle cx="158.3" cy="774.1" r="1"/>
<circle cx="442.5" cy="42.5" r="1"/>
<circle cx="284.9" cy="917.6" r="1"/>
<circle cx="969.0" cy="581.6" r="1"/>
<circle cx="80.6" cy="254.8" r="1"/>
<circle cx="686.7" cy="927.7" r="1"/>
<circle cx="819.4" cy="862.3" r="1"/>
<circle cx="551.5" cy="27.7" r="1"/>
<circle cx="801.8" cy="163.3" r="1"/>
<circle cx="344.8" cy="53.0" r="1"/>
<circle cx="75.3" cy="660.2" r="1"/>
<circle cx="116.4" cy="286.6" r="1"/>
<circle cx="612.6" cy="920.8" r="1"/>
<circle cx="756.4" cy="89.7" r="1"/>
<circle cx="937.7" cy="683.2" r="1"/>
<circle cx="456.5" cy="979.2" r="1"/>
<circle cx="73.2" cy="642.8" r="1"/>
<circle cx="851.2" cy="791.0" r="1"/>
<circle cx="14.4" cy="572.5" r="1"/>
<circle cx="699.2" cy="115.0" r="1"/>
<circle cx="763.9" cy="889.3" r="1"/>
<circle cx="48.5" cy="405.9" r="1"/>
<circle cx="179.0" cy="797.7" r="1"/>
<circle cx="495.4" cy="11.8" r="1"/>
<circle cx="811.6" cy="176.4" r="1"/>
<circle cx="928.6" cy="381.3" r="1"/>
<circle cx="323.1" cy="930.2" r="1"/>
<circle cx="589.1" cy="29.7" r="1"/>
<circle cx="59.7" cy="392.5" r="1"/>
<circle cx="190.8" cy="140.7" r="1"/>
<circle cx="788.0" cy="876.6" r="1"/>
<circle cx="923.9" cy="603.8" r="1"/>
<circle cx="77.9" cy="670.5" r="1"/>
<circle cx="919.2" cy="733.5" r="1"/>
<circle cx="969.3" cy="396.0" r="1"/>
<circle cx="755.6" cy="151.9" r="1"/>
<circle cx="330.4" cy="934.8" r="1"/>
<circle cx="789.1" cy="118.9" r="1"/>
<circle cx="64.5" cy="356.7" r="1"/>
<circle cx="915.1" cy="345.5" r="1"/>
<circle cx="53.4" cy="507.3" r="1"/>
<circle cx="883.9" cy="753.9" r="1"/>
<circle cx="828.1" cy="168.1" r="1"/>
<circle cx="18.1" cy="530.3" r="1"/>
<circle cx="485.6" cy="14.0" r="1"/>
<circle cx="56.9" cy="516.2" r="1"/>
<circle cx="584.7" cy="16.5" r="1"/>
<circle cx="848.6" cy="767.6" r="1"/>
<circle cx="903.8" cy="319.8" r="1"/>
<circle cx="598.8" cy="926.9" r="1"/>
<circle cx="500.3" cy="940.0" r="1"/>
<circle cx="978.0" cy="556.1" r="1"/>
<circle cx="856.4" cy="805.9" r="1"/>
<circle cx="77.5" cy="749.5" r="1"/>
<circle cx="642.1" cy="92.4" r="1"/>
<circle cx="84.7" cy="747.0" r="1"/>
<circle cx="119.8" cy="742.6" r="1"/>
<circle cx="92.4" cy="717.4" r="1"/>
<circle cx="707.0" cy="932.2" r="1"/>
<circle cx="776.6" cy="136.9" r="1"/>
<circle cx="141.8" cy="771.4" r="1"/>
<circle cx="731.3" cy="872.7" r="1"/>
<circle cx="557.9" cy="972.8" r="1"/>
<circle cx="32.5" cy="607.9" r="1"/>
<circle cx="62.0" cy="622.8" r="1"/>
<circle cx="854.6" cy="249.4" r="1"/>
<circle cx="929.7" cy="574.4" r="1"/>
<circle cx="921.4" cy="720.7" r="1"/>
<circle cx="946.9" cy="371.4" r="1"/>
<circle cx="640.4" cy="79.7" r="1"/>
<circle cx="171.7" cy="199.0" r="1"/>
<circle cx="72.6" cy="300.2" r="1"/>
<circle cx="914.7" cy="248.3" r="1"/>
<circle cx="176.2" cy="815.0" r="1"/>
<circle cx="104.3" cy="230.7" r="1"/>
<circle cx="46.5" cy="314.2" r="1"/>
<circle cx="72.9" cy="691.5" r="1"/>
<circle cx="846.7" cy="756.2" r="1"/>
<circle cx="378.7" cy="67.4" r="1"/>
<circle cx="52.7" cy="435.5" r="1"/>
<circle cx="972.8" cy="572.4" r="1"/>
<circle cx="948.3" cy="660.4" r="1"/>
<circle cx="561.0" cy="934.8" r="1"/>
<circle cx="432.9" cy="48.7" r="1"/>
<circle cx="66.6" cy="581.5" r="1"/>
<circle cx="784.2" cy="172.7" r="1"/>
<circle cx="389.7" cy="82.4" r="1"/>
<circle cx="34.0" cy="501.2" r="1"/>
<circle cx="495.7" cy="957.8" r="1"/>
<circle cx="914.3" cy="372.6" r="1"/>
<circle cx="970.2" cy="430.1" r="1"/>
<circle cx="974.5" cy="439.5" r="1"/>
<circle cx="896.2" cy="280.9" r="1"/>
<circle cx="699.4" cy="895.7" r="1"/>
<circle cx="24.8" cy="444.2" r="1"/>
<circle cx="771.5" cy="111.2" r="1"/>
<circle cx="614.7" cy="71.3" r="1"/>
<circle cx="931.4" cy="680.3" r="1"/>
<circle cx="161.2" cy="832.1" r="1"/>
<circle cx="71.1" cy="459.2" r="1"/>
<circle cx="372.9" cy="72.4" r="1"/>
<circle cx="754.9" cy="109.8" r="1"/>
<circle cx="547.5" cy="28.7" r="1"/>
<circle cx="208.8" cy="111.7" r="1"/>
<circle cx="658.1" cy="922.3" r="1"/>
<circle cx="910.1" cy="310.8" r="1"/>
<circle cx="646.0" cy="924.6" r="1"/>
<circle cx="195.0" cy="145.2" r="1"/>
<circle cx="486.0" cy="935.9" r="1"/>
<circle cx="57.1" cy="471.6" r="1"/>
<circle cx="975.4" cy="486.0" r="1"/>
<circle cx="956.5" cy="606.9" r="1"/>
<circle cx="514.2" cy="943.0" r="1"/>
<circle cx="125.1" cy="793.4" r="1"/>
<circle cx="87.9" cy="362.1" r="1"/>
<circle cx="140.0" cy="739.7" r="1"/>
<circle cx="812.5" cy="170.2" r="1"/>
<circle cx="107.8" cy="301.1" r="1"/>
<circle cx="257.8" cy="100.9" r="1"/>
<circle cx="278.4" cy="80.8" r="1"/>
<circle cx="67.3" cy="660.4" r="1"/>
<circle cx="776.9" cy="112.2" r="1"/>
<circle cx="473.3" cy="933.5" r="1"/>
<circle cx="957.9" cy="411.5" r="1"/>
<circle cx="343.4" cy="52.7" r="1"/>
<circle cx="42.6" cy="484.5" r="1"/>
<circle cx="747.0" cy="96.9" r="1"/>
<circle cx="596.4" cy="67.3" r="1"/>
<circle cx="407.9" cy="949.1" r="1"/>
<circle cx="596.9" cy="943.9" r="1"/>
<circle cx="769.5" cy="835.5" r="1"/>
<circle cx="350.3" cy="88.1" r="1"/>
<circle cx="957.0" cy="385.7" r="1"/>
<circle cx="764.3" cy="155.3" r="1"/>
<circle cx="815.6" cy="175.9" r="1"/>
<circle cx="41.1" cy="555.6" r="1"/>
<circle cx="958.2" cy="332.4" r="1"/>
<circle cx="953.9" cy="591.0" r="1"/>
<circle cx="641.1" cy="958.6" r="1"/>
<circle cx="971.5" cy="482.5" r="1"/>
<circle cx="959.6" cy="617.4" r="1"/>
<circle cx="502.1" cy="974.6" r="1"/>
<circle cx="392.3" cy="26.7" r="1"/>
<circle cx="50.7" cy="577.5" r="1"/>
<circle cx="652.4" cy="74.2" r="1"/>
<circle cx="700.7" cy="97.4" r="1"/>
<circle cx="563.9" cy="974.8" r="1"/>
<circle cx="738.1" cy="127.9" r="1"/>
<circle cx="964.4" cy="528.9" r="1"/>
<circle cx="659.0" cy="72.0" r="1"/>
<circle cx="410.4" cy="51.9" r="1"/>
<circle cx="67.6" cy="561.8" r="1"/>
<circle cx="95.3" cy="688.9" r="1"/>
<circle cx="923.3" cy="289.0" r="1"/>
<circle cx="756.7" cy="881.8" r="1"/>
<circle cx="77.5" cy="381.9" r="1"/>
<circle cx="67.0" cy="603.7" r="1"/>
<circle cx="931.2" cy="397.3" r="1"/>
<circle cx="374.5" cy="917.2" r="1"/>
<circle cx="670.6" cy="83.0" r="1"/>
<circle cx="24.2" cy="533.5" r="1"/>
<circle cx="826.9" cy="838.6" r="1"/>
<circle cx="247.0" cy="111.1" r="1"/>
<circle cx="45.7" cy="540.6" r="1"/>
<circle cx="253.8" cy="915.7" r="1"/>
<circle cx="438.4" cy="945.1" r="1"/>
<circle cx="65.2" cy="684.0" r="1"/>
<circle cx="338.4" cy="936.0" r="1"/>
<circle cx="374.4" cy="928.2" r="1"/>
<circle cx="261.3" cy="133.1" r="1"/>
<circle cx="805.6" cy="188.6" r="1"/>
<circle cx="26.5" cy="583.6" r="1"/>
<circle cx="104.0" cy="326.9" r="1"/>
<circle cx="935.8" cy="397.1" r="1"/>
<circle cx="952.0" cy="529.3" r="1"/>
<circle cx="901.4" cy="739.7" r="1"/>
<circle cx="372.9" cy="46.7" r="1"/>
<circle cx="765.0" cy="89.3" r="1"/>
<circle cx="268.5" cy="915.5" r="1"/>
<circle cx="524.3" cy="982.2" r="1"/>
<circle cx="207.8" cy="867.1" r="1"/>
<circle cx="503.2" cy="964.6" r="1"/>
<circle cx="972.1" cy="449.4" r="1"/>
<circle cx="962.8" cy="356.7" r="1"/>
<circle cx="47.6" cy="386.3" r="1"/>
<circle cx="576.2" cy="924.0" r="1"/>
<circle cx="750.1" cy="129.5" r="1"/>
<circle cx="558.4" cy="942.3" r="1"/>
<circle cx="924.4" cy="427.3" r="1"/>
<circle cx="759.1" cy="877.2" r="1"/>
<circle cx="610.5" cy="50.8" r="1"/>
<circle cx="248.3" cy="150.8" r="1"/>
<circle cx="908.0" cy="339.3" r="1"/>
<circle cx="395.3" cy="921.0" r="1"/>
<circle cx="958.5" cy="510.1" r="1"/>
<circle cx="31.2" cy="468.7" r="1"/>
<circle cx="798.6" cy="123.9" r="1"/>
<circle cx="959.1" cy="421.7" r="1"/>
<circle cx="171.6" cy="862.8" r="1"/>
<circle cx="57.4" cy="572.7" r="1"/>
<circle cx="225.0" cy="167.6" r="1"/>
<circle cx="872.9" cy="744.3" r="1"/>
<circle cx="622.5" cy="949.8" r="1"/>
<circle cx="824.4" cy="151.9" r="1"/>
<circle cx="728.9" cy="110.2" r="1"/>
<circle cx="548.4" cy="71.8" r="1"/>
<circle cx="513.3" cy="932.7" r="1"/>
<circle cx="20.6" cy="466.8" r="1"/>
<circle cx="892.7" cy="784.2" r="1"/>
<circle cx="169.3" cy="191.4" r="1"/>
<circle cx="622.5" cy="969.8" r="1"/>
<circle cx="941.7" cy="580.8" r="1"/>
<circle cx="904.8" cy="668.0" r="1"/>
<circle cx="68.5" cy="573.9" r="1"/>
<circle cx="733.2" cy="115.1" r="1"/>
<circle cx="122.5" cy="273.2" r="1"/>
<circle cx="748.5" cy="86.4" r="1"/>
<circle cx="77.0" cy="413.5" r="1"/>
<circle cx="446.4" cy="964.1" r="1"/>
<circle cx="832.3" cy="794.1" r="1"/>
<circle cx="806.0" cy="170.4" r="1"/>
<circle cx="919.0" cy="279.5" r="1"/>
<circle cx="590.9" cy="59.6" r="1"/>
<circle cx="381.1" cy="72.6" r="1"/>
<circle cx="158.4" cy="204.9" r="1"/>
<circle cx="93.7" cy="687.5" r="1"/>
<circle cx="965.1" cy="498.5" r="1"/>
<circle cx="456.7" cy="12.0" r="1"/>
<circle cx="64.8" cy="532.1" r="1"/>
<circle cx="954.6" cy="351.4" r="1"/>
<circle cx="939.8" cy="381.5" r="1"/>
<circle cx="979.2" cy="421.0" r="1"/>
<circle cx="951.2" cy="629.6" r="1"/>
<circle cx="53.7" cy="300.2" r="1"/>
<circle cx="986.5" cy="559.3" r="1"/>
<circle cx="45.4" cy="316.7" r="1"/>
<circle cx="223.9" cy="835.0" r="1"/>
<circle cx="68.5" cy="330.4" r="1"/>
<circle cx="949.6" cy="340.1" r="1"/>
<circle cx="367.1" cy="65.1" r="1"/>
<circle cx="111.9" cy="313.5" r="1"/>
<circle cx="759.7" cy="84.4" r="1"/>
<circle cx="960.9" cy="615.6" r="1"/>
<circle cx="10.4" cy="492.9" r="1"/>
<circle cx="216.8" cy="878.1" r="1"/>
<circle cx="160.9" cy="829.4" r="1"/>
<circle cx="850.0" cy="216.7" r="1"/>
<circle cx="896.2" cy="218.2" r="1"/>
<circle cx="514.5" cy="43.5" r="1"/>
<circle cx="514.7" cy="38.3" r="1"/>
<circle cx="514.6" cy="41.0" r="1"/>
<circle cx="514.4" cy="46.1" r="1"/>
<circle cx="514.3" cy="49.2" r="1"/>
<circle cx="514.1" cy="55.7" r="1"/>
<circle cx="513.7" cy="67.3" r="1"/>
<circle cx="513.9" cy="62.1" r="1"/>
<circle cx="514.2" cy="53.1" r="1"/>
<circle cx="514.8" cy="33.5" r="1"/>
<circle cx="515.4" cy="13.6" r="1"/>
<circle cx="514.5" cy="42.8" r="1"/>
<circle cx="513.7" cy="68.4" r="1"/>
<circle cx="514.8" cy="34.8" r="1"/>
<circle cx="515.3" cy="17.9" r="1"/>
<circle cx="515.2" cy="19.7" r="1"/>
<circle cx="513.7" cy="67.6" r="1"/>
<circle cx="515.1" cy="25.2" r="1"/>
<circle cx="514.6" cy="39.0" r="1"/>
<circle cx="514.7" cy="35.4" r="1"/>
<circle cx="514.8" cy="34.0" r="1"/>
<circle cx="514.6" cy="40.4" r="1"/>
<circle cx="434.7" cy="46.8" r="1"/>
<circle cx="406.0" cy="55.2" r="1"/>
<circle cx="242.4" cy="126.4" r="1"/>
<circle cx="191.6" cy="120.9" r="1"/>
<circle cx="433.9" cy="59.7" r="1"/>
<circle cx="207.3" cy="155.6" r="1"/>
<circle cx="358.0" cy="94.1" r="1"/>
<circle cx="452.3" cy="25.5" r="1"/>
<circle cx="434.9" cy="48.3" r="1"/>
<circle cx="153.2" cy="198.7" r="1"/>
<circle cx="298.3" cy="68.0" r="1"/>
<circle cx="319.1" cy="67.4" r="1"/>
<circle cx="292.1" cy="121.8" r="1"/>
<circle cx="344.7" cy="56.9" r="1"/>
<circle cx="156.4" cy="198.6" r="1"/>
<circle cx="376.8" cy="74.1" r="1"/>
<circle cx="405.4" cy="70.6" r="1"/>
<circle cx="234.8" cy="127.0" r="1"/>
<circle cx="259.4" cy="106.5" r="1"/>
<circle cx="216.3" cy="155.7" r="1"/>
<circle cx="192.0" cy="164.2" r="1"/>
<circle cx="378.0" cy="69.0" r="1"/>
<circle cx="276.5" cy="116.4" r="1"/>
<circle cx="398.2" cy="75.1" r="1"/>
<circle cx="108.2" cy="240.0" r="1"/>
<circle cx="217.1" cy="175.7" r="1"/>
<circle cx="131.5" cy="244.8" r="1"/>
<circle cx="127.9" cy="221.3" r="1"/>
<circle cx="226.5" cy="131.5" r="1"/>
<circle cx="232.3" cy="109.3" r="1"/>
<circle cx="436.8" cy="47.7" r="1"/>
<circle cx="340.0" cy="90.8" r="1"/>
<circle cx="213.7" cy="154.3" r="1"/>
<circle cx="227.3" cy="137.8" r="1"/>
<circle cx="283.6" cy="123.3" r="1"/>
<circle cx="275.4" cy="117.9" r="1"/>
<circle cx="263.4" cy="89.0" r="1"/>
<circle cx="385.0" cy="75.3" r="1"/>
<circle cx="382.6" cy="44.7" r="1"/>
<circle cx="405.8" cy="59.1" r="1"/>
<circle cx="403.6" cy="23.3" r="1"/>
<circle cx="197.2" cy="128.3" r="1"/>
<circle cx="166.1" cy="189.5" r="1"/>
<circle cx="203.0" cy="118.2" r="1"/>
<circle cx="164.6" cy="147.2" r="1"/>
<circle cx="172.5" cy="142.1" r="1"/>
<circle cx="159.0" cy="230.2" r="1"/>
<circle cx="435.3" cy="39.9" r="1"/>
<circle cx="124.9" cy="192.8" r="1"/>
<circle cx="313.7" cy="108.7" r="1"/>
<circle cx="212.9" cy="165.8" r="1"/>
<circle cx="377.9" cy="79.8" r="1"/>
<circle cx="235.3" cy="98.8" r="1"/>
<circle cx="265.4" cy="104.6" r="1"/>
<circle cx="334.3" cy="80.6" r="1"/>
<circle cx="130.5" cy="207.9" r="1"/>
<circle cx="91.4" cy="241.5" r="1"/>
<circle cx="164.3" cy="180.8" r="1"/>
<circle cx="268.8" cy="114.6" r="1"/>
<circle cx="117.0" cy="227.5" r="1"/>
<circle cx="158.1" cy="215.9" r="1"/>
<circle cx="256.9" cy="145.2" r="1"/>
<circle cx="387.0" cy="48.6" r="1"/>
<circle cx="167.9" cy="167.8" r="1"/>
<circle cx="206.5" cy="109.3" r="1"/>
<circle cx="315.1" cy="57.7" r="1"/>
<circle cx="324.7" cy="85.5" r="1"/>
<circle cx="281.9" cy="69.9" r="1"/>
<circle cx="204.6" cy="176.0" r="1"/>
<circle cx="125.9" cy="195.4" r="1"/>
<circle cx="324.7" cy="47.8" r="1"/>
<circle cx="195.4" cy="141.7" r="1"/>
<circle cx="215.3" cy="122.4" r="1"/>
<circle cx="249.2" cy="95.9" r="1"/>
<circle cx="440.7" cy="61.2" r="1"/>
<circle cx="108.4" cy="243.5" r="1"/>
<circle cx="86.7" cy="252.4" r="1"/>
<circle cx="179.5" cy="163.1" r="1"/>
<circle cx="227.8" cy="131.9" r="1"/>
<circle cx="159.8" cy="232.7" r="1"/>
<circle cx="233.9" cy="123.0" r="1"/>
<circle cx="344.6" cy="96.2" r="1"/>
<circle cx="367.0" cy="43.8" r="1"/>
<circle cx="328.0" cy="85.9" r="1"/>
<circle cx="330.7" cy="81.2" r="1"/>
<circle cx="958.3" cy="614.3" r="1"/>
<circle cx="638.2" cy="943.4" r="1"/>
<circle cx="61.2" cy="688.3" r="1"/>
<circle cx="25.4" cy="571.2" r="1"/>
<circle cx="765.3" cy="840.3" r="1"/>
<circle cx="933.6" cy="468.1" r="1"/>
<circle cx="580.3" cy="985.0" r="1"/>
<circle cx="117.5" cy="265.6" r="1"/>
<circle cx="189.5" cy="805.5" r="1"/>
<circle cx="685.4" cy="943.5" r="1"/>
<circle cx="914.3" cy="648.6" r="1"/>
<circle cx="40.2" cy="388.1" r="1"/>
<circle cx="542.8" cy="935.2" r="1"/>
<circle cx="387.0" cy="968.0" r="1"/>
<circle cx="77.5" cy="370.9" r="1"/>
<circle cx="247.9" cy="133.0" r="1"/>
<circle cx="898.9" cy="306.4" r="1"/>
<circle cx="817.9" cy="841.1" r="1"/>
<circle cx="731.9" cy="73.1" r="1"/>
<circle cx="39.4" cy="603.9" r="1"/>
<circle cx="905.1" cy="707.7" r="1"/>
<circle cx="46.5" cy="550.9" r="1"/>
<circle cx="50.9" cy="338.6" r="1"/>
<circle cx="649.0" cy="914.6" r="1"/>
<circle cx="924.0" cy="668.5" r="1"/>
<circle cx="167.1" cy="158.6" r="1"/>
<circle cx="603.0" cy="965.0" r="1"/>
<circle cx="974.9" cy="603.6" r="1"/>
<circle cx="913.0" cy="708.2" r="1"/>
<circle cx="660.5" cy="924.9" r="1"/>
<circle cx="17.9" cy="471.8" r="1"/>
<circle cx="52.5" cy="531.5" r="1"/>
<circle cx="553.9" cy="60.0" r="1"/>
<circle cx="101.3" cy="690.7" r="1"/>
<circle cx="947.5" cy="690.3" r="1"/>
<circle cx="951.1" cy="423.0" r="1"/>
<circle cx="435.9" cy="72.7" r="1"/>
<circle cx="389.7" cy="916.5" r="1"/>
<circle cx="852.7" cy="808.6" r="1"/>
<circle cx="28.7" cy="564.7" r="1"/>
<circle cx="169.5" cy="798.9" r="1"/>
<circle cx="707.5" cy="883.7" r="1"/>
<circle cx="950.1" cy="495.8" r="1"/>
<circle cx="888.5" cy="721.3" r="1"/>
<circle cx="449.7" cy="945.0" r="1"/>
<circle cx="658.6" cy="43.4" r="1"/>
<circle cx="875.8" cy="735.5" r="1"/>
<circle cx="932.3" cy="386.7" r="1"/>
<circle cx="925.9" cy="620.3" r="1"/>
<circle cx="91.3" cy="729.7" r="1"/>
<circle cx="932.0" cy="436.3" r="1"/>
<circle cx="976.7" cy="503.3" r="1"/>
<circle cx="949.9" cy="329.0" r="1"/>
<circle cx="30.0" cy="388.4" r="1"/>
<circle cx="924.9" cy="272.0" r="1"/>
<circle cx="900.4" cy="774.0" r="1"/>
<circle cx="324.8" cy="98.0" r="1"/>
<circle cx="300.7" cy="65.2" r="1"/>
<circle cx="484.9" cy="19.5" r="1"/>
<circle cx="485.8" cy="49.6" r="1"/>
<circle cx="485.3" cy="34.6" r="1"/>
<circle cx="485.4" cy="35.7" r="1"/>
<circle cx="486.2" cy="61.0" r="1"/>
<circle cx="485.3" cy="34.5" r="1"/>
<circle cx="486.1" cy="58.1" r="1"/>
<circle cx="486.2" cy="60.9" r="1"/>
<circle cx="485.6" cy="42.5" r="1"/>
<circle cx="484.9" cy="21.2" r="1"/>
<circle cx="485.1" cy="26.7" r="1"/>
<circle cx="485.2" cy="29.9" r="1"/>
<circle cx="485.9" cy="51.9" r="1"/>
<circle cx="485.6" cy="42.8" r="1"/>
<circle cx="486.4" cy="67.3" r="1"/>
<circle cx="123.3" cy="217.1" r="1"/>
<circle cx="425.8" cy="960.8" r="1"/>
<circle cx="960.8" cy="485.2" r="1"/>
<circle cx="159.5" cy="791.9" r="1"/>
<circle cx="939.8" cy="287.0" r="1"/>
<circle cx="435.3" cy="971.5" r="1"/>
<circle cx="827.8" cy="803.6" r="1"/>
<circle cx="894.9" cy="769.1" r="1"/>
<circle cx="595.1" cy="53.6" r="1"/>
<circle cx="718.0" cy="63.3" r="1"/>
<circle cx="375.5" cy="962.0" r="1"/>
<circle cx="884.1" cy="263.0" r="1"/>
<circle cx="478.6" cy="51.2" r="1"/>
<circle cx="488.7" cy="39.9" r="1"/>
<circle cx="407.9" cy="959.5" r="1"/>
<circle cx="150.0" cy="825.4" r="1"/>
<circle cx="328.6" cy="902.2" r="1"/>
<circle cx="206.3" cy="110.9" r="1"/>
<circle cx="505.1" cy="53.0" r="1"/>
<circle cx="645.2" cy="61.4" r="1"/>
<circle cx="930.7" cy="736.4" r="1"/>
<circle cx="930.7" cy="445.6" r="1"/>
<circle cx="34.0" cy="500.6" r="1"/>
<circle cx="57.0" cy="596.1" r="1"/>
<circle cx="921.9" cy="389.1" r="1"/>
<circle cx="149.1" cy="767.3" r="1"/>
<circle cx="714.9" cy="74.2" r="1"/>
<circle cx="388.7" cy="32.6" r="1"/>
<circle cx="928.3" cy="635.9" r="1"/>
<circle cx="583.3" cy="930.6" r="1"/>
<circle cx="431.9" cy="972.1" r="1"/>
<circle cx="588.1" cy="952.6" r="1"/>
<circle cx="734.7" cy="111.0" r="1"/>
<circle cx="72.6" cy="555.6" r="1"/>
<circle cx="204.9" cy="108.5" r="1"/>
<circle cx="704.7" cy="910.6" r="1"/>
<circle cx="804.7" cy="180.8" r="1"/>
<circle cx="310.7" cy="922.2" r="1"/>
<circle cx="751.2" cy="110.7" r="1"/>
<circle cx="825.8" cy="195.2" r="1"/>
<circle cx="490.4" cy="38.8" r="1"/>
<circle cx="866.2" cy="205.8" r="1"/>
<circle cx="268.6" cy="880.8" r="1"/>
<circle cx="55.3" cy="300.2" r="1"/>
<circle cx="719.8" cy="115.2" r="1"/>
<circle cx="304.2" cy="56.6" r="1"/>
<circle cx="94.7" cy="228.3" r="1"/>
<circle cx="724.7" cy="899.1" r="1"/>
<circle cx="337.6" cy="917.2" r="1"/>
<circle cx="828.6" cy="818.0" r="1"/>
<circle cx="98.4" cy="657.2" r="1"/>
<circle cx="585.1" cy="924.1" r="1"/>
<circle cx="615.2" cy="73.5" r="1"/>
<circle cx="167.8" cy="209.7" r="1"/>
<circle cx="226.2" cy="903.5" r="1"/>
<circle cx="665.9" cy="65.2" r="1"/>
<circle cx="893.1" cy="715.2" r="1"/>
<circle cx="695.7" cy="84.8" r="1"/>
<circle cx="62.8" cy="521.7" r="1"/>
<circle cx="840.5" cy="844.3" r="1"/>
<circle cx="948.1" cy="606.1" r="1"/>
<circle cx="58.7" cy="488.1" r="1"/>
<circle cx="440.5" cy="49.4" r="1"/>
<circle cx="507.3" cy="53.4" r="1"/>
<circle cx="820.0" cy="188.3" r="1"/>
<circle cx="475.5" cy="57.5" r="1"/>
<circle cx="947.5" cy="645.4" r="1"/>
<circle cx="299.0" cy="94.2" r="1"/>
<circle cx="203.0" cy="157.6" r="1"/>
<circle cx="896.6" cy="237.3" r="1"/>
<circle cx="685.5" cy="954.3" r="1"/>
<circle cx="848.7" cy="771.2" r="1"/>
<circle cx="25.7" cy="438.6" r="1"/>
<circle cx="63.0" cy="456.5" r="1"/>
<circle cx="638.9" cy="943.7" r="1"/>
<circle cx="925.0" cy="270.5" r="1"/>
<circle cx="304.0" cy="898.9" r="1"/>
<circle cx="674.7" cy="106.4" r="1"/>
<circle cx="90.7" cy="307.1" r="1"/>
<circle cx="111.4" cy="289.9" r="1"/>
<circle cx="932.2" cy="381.8" r="1"/>
<circle cx="884.0" cy="301.6" r="1"/>
<circle cx="97.5" cy="224.6" r="1"/>
<circle cx="683.7" cy="82.1" r="1"/>
<circle cx="532.1" cy="939.5" r="1"/>
<circle cx="698.3" cy="97.7" r="1"/>
<circle cx="326.8" cy="101.2" r="1"/>
<circle cx="548.9" cy="35.3" r="1"/>
<circle cx="836.6" cy="854.8" r="1"/>
<circle cx="339.1" cy="925.7" r="1"/>
<circle cx="971.3" cy="436.2" r="1"/>
<circle cx="443.7" cy="954.6" r="1"/>
<circle cx="45.5" cy="415.7" r="1"/>
<circle cx="387.4" cy="974.4" r="1"/>
<circle cx="953.2" cy="604.0" r="1"/>
<circle cx="925.2" cy="306.4" r="1"/>
<circle cx="932.6" cy="576.9" r="1"/>
<circle cx="781.1" cy="138.1" r="1"/>
<circle cx="136.3" cy="250.8" r="1"/>
<circle cx="49.0" cy="548.4" r="1"/>
<circle cx="950.9" cy="653.8" r="1"/>
<circle cx="20.0" cy="556.0" r="1"/>
<circle cx="79.3" cy="293.6" r="1"/>
<circle cx="742.4" cy="86.0" r="1"/>
<circle cx="167.4" cy="813.9" r="1"/>
<circle cx="563.4" cy="977.3" r="1"/>
<circle cx="71.1" cy="698.2" r="1"/>
<circle cx="533.6" cy="976.2" r="1"/>
<circle cx="953.0" cy="456.6" r="1"/>
<circle cx="751.6" cy="118.5" r="1"/>
<circle cx="409.6" cy="972.1" r="1"/>
<circle cx="39.2" cy="629.5" r="1"/>
<circle cx="742.0" cy="874.6" r="1"/>
<circle cx="55.8" cy="454.9" r="1"/>
<circle cx="205.3" cy="154.1" r="1"/>
<circle cx="346.4" cy="959.9" r="1"/>
<circle cx="566.4" cy="13.8" r="1"/>
<circle cx="879.1" cy="747.7" r="1"/>
<circle cx="241.3" cy="909.9" r="1"/>
<circle cx="29.0" cy="377.8" r="1"/>
<circle cx="569.2" cy="32.4" r="1"/>
<circle cx="686.0" cy="76.7" r="1"/>
<circle cx="872.2" cy="749.5" r="1"/>
<circle cx="216.2" cy="170.3" r="1"/>
<circle cx="673.9" cy="98.9" r="1"/>
<circle cx="559.0" cy="23.7" r="1"/>
<circle cx="922.9" cy="306.5" r="1"/>
<circle cx="929.0" cy="726.4" r="1"/>
<circle cx="920.7" cy="260.0" r="1"/>
<circle cx="234.1" cy="899.3" r="1"/>
<circle cx="449.8" cy="23.0" r="1"/>
<circle cx="710.7" cy="101.5" r="1"/>
<circle cx="970.4" cy="513.9" r="1"/>
<circle cx="554.4" cy="953.8" r="1"/>
<circle cx="166.8" cy="821.7" r="1"/>
<circle cx="33.9" cy="514.4" r="1"/>
<circle cx="806.4" cy="167.5" r="1"/>
<circle cx="374.0" cy="69.2" r="1"/>
<circle cx="912.8" cy="754.0" r="1"/>
<circle cx="540.6" cy="36.9" r="1"/>
<circle cx="957.5" cy="582.5" r="1"/>
<circle cx="869.1" cy="206.2" r="1"/>
<circle cx="943.0" cy="412.9" r="1"/>
<circle cx="174.8" cy="185.7" r="1"/>
<circle cx="843.2" cy="779.2" r="1"/>
<circle cx="851.8" cy="163.7" r="1"/>
<circle cx="172.4" cy="144.5" r="1"/>
<circle cx="644.4" cy="93.3" r="1"/>
<circle cx="109.5" cy="746.5" r="1"/>
<circle cx="269.7" cy="912.2" r="1"/>
<circle cx="246.2" cy="89.9" r="1"/>
<circle cx="77.3" cy="356.5" r="1"/>
<circle cx="663.9" cy="98.0" r="1"/>
<circle cx="115.7" cy="772.7" r="1"/>
<circle cx="649.8" cy="925.2" r="1"/>
<circle cx="669.2" cy="944.3" r="1"/>
<circle cx="893.1" cy="739.2" r="1"/>
<circle cx="229.8" cy="850.6" r="1"/>
<circle cx="984.7" cy="558.8" r="1"/>
<circle cx="638.0" cy="53.5" r="1"/>
<circle cx="297.9" cy="112.5" r="1"/>
<circle cx="602.5" cy="28.9" r="1"/>
<circle cx="364.4" cy="46.1" r="1"/>
<circle cx="585.7" cy="36.3" r="1"/>
<circle cx="776.2" cy="883.7" r="1"/>
<circle cx="36.5" cy="367.5" r="1"/>
<circle cx="720.6" cy="904.2" r="1"/>
<circle cx="229.2" cy="877.7" r="1"/>
<circle cx="904.7" cy="298.6" r="1"/>
<circle cx="875.1" cy="210.6" r="1"/>
<circle cx="849.7" cy="780.5" r="1"/>
<circle cx="837.6" cy="799.9" r="1"/>
<circle cx="668.1" cy="926.1" r="1"/>
<circle cx="804.6" cy="851.3" r="1"/>
<circle cx="933.8" cy="396.7" r="1"/>
<circle cx="473.9" cy="941.4" r="1"/>
<circle cx="686.3" cy="898.5" r="1"/>
</g></svg>
